<svg width="12" height="15" viewBox="0 0 12 15" fill="none" xmlns="http://www.w3.org/2000/svg">
<path d="M8.50127 9.50761C8.50127 10.038 8.29055 10.5467 7.91548 10.9218C7.54041 11.2969 7.0317 11.5076 6.50127 11.5076M5.15127 1.03761C5.09081 1.00149 5.02169 0.982422 4.95127 0.982422C4.88084 0.982422 4.81173 1.00149 4.75127 1.03761C4.7014 1.07712 4.66775 1.13355 4.65669 1.19621C4.64563 1.25887 4.65793 1.32341 4.69127 1.37761C5.92127 3.50761 6.18127 6.40761 4.50127 8.00761C3.85489 7.46443 3.34174 6.78022 3.00127 6.00761C2.38 6.35266 1.86512 6.86131 1.51253 7.47833C1.15995 8.09536 0.983128 8.79718 1.00127 9.50761C1.02663 10.1339 1.177 10.7488 1.44354 11.3161C1.71008 11.8834 2.08739 12.3916 2.55328 12.8109C3.01918 13.2302 3.56423 13.5521 4.15637 13.7576C4.74852 13.9631 5.37579 14.0481 6.00127 14.0076C9.22127 14.0076 10.8913 12.0076 11.0013 9.50761C11.1313 6.50761 9.00127 2.81761 5.15127 1.03761Z" stroke="#FFDC10" stroke-linecap="round" stroke-linejoin="round"/>
</svg>
