<svg width="14" height="11" viewBox="0 0 14 11" fill="none" xmlns="http://www.w3.org/2000/svg">
<path d="M10.0039 1.47314V1.048V1.02322C9.99043 1.01333 9.96246 1 9.92057 1C9.87868 1 9.85071 1.01333 9.83724 1.02322V1.5H9.33724H4.67057H4.17057V1.02322C4.1571 1.01333 4.12913 1 4.08724 1C4.04535 1 4.01738 1.01333 4.00391 1.02322V1.048V1.4731L3.58434 1.54149C2.69674 1.68616 2.0032 2.22099 1.74109 2.90844L10.0039 1.47314ZM10.0039 1.47314L10.4235 1.5415M10.0039 1.47314L10.4235 1.5415M10.4235 1.5415C11.3116 1.68616 12.0046 2.22092 12.2667 2.90844M10.4235 1.5415L12.2667 2.90844M12.2667 2.90844C13.2948 5.60819 13.5039 8.37776 13.5039 8.9375C13.5039 9.45332 12.985 10 12.181 10C11.664 10 11.0701 9.62106 10.4863 8.985M12.2667 2.90844L10.4863 8.985M10.4863 8.985C9.92275 8.37085 9.46294 7.61917 9.21113 7.10281L10.4863 8.985ZM0.503906 8.9375C0.503906 8.37777 0.712988 5.60829 1.74103 2.90859L4.79757 7.10218C4.79751 7.10231 4.79744 7.10245 4.79738 7.10258C4.54524 7.61906 4.08525 8.3708 3.52156 8.98497C2.93775 9.62106 2.34381 10 1.82682 10C1.02279 10 0.503906 9.45332 0.503906 8.9375ZM3.00391 4.25C3.00391 5.00968 3.69485 5.5 4.37891 5.5C5.06296 5.5 5.75391 5.00968 5.75391 4.25C5.75391 3.49032 5.06296 3 4.37891 3C3.69485 3 3.00391 3.49032 3.00391 4.25ZM8.25391 4.25C8.25391 5.00968 8.94485 5.5 9.62891 5.5C10.313 5.5 11.0039 5.00968 11.0039 4.25C11.0039 3.49032 10.313 3 9.62891 3C8.94485 3 8.25391 3.49032 8.25391 4.25Z" stroke="#FFDC10"/>
</svg>
