<svg width="39" height="39" viewBox="0 0 39 39" fill="none" xmlns="http://www.w3.org/2000/svg">
<path d="M39 14.6252C38.7895 15.8051 38.3206 16.9238 37.6269 17.9012L23.3545 37.1089C22.902 37.6935 22.3225 38.1675 21.6598 38.4952C20.9971 38.8228 20.2686 38.9954 19.5293 38.9999C18.7901 39.0044 18.0595 38.8408 17.3928 38.5214C16.7262 38.2019 16.1409 37.735 15.6812 37.156L1.339 17.5502C0.729755 16.6674 0.299671 15.6736 0.073125 14.6252H10.2586L17.9823 34.7088C18.0998 35.016 18.3078 35.2804 18.5788 35.4669C18.8498 35.6534 19.171 35.7532 19.5 35.7532C19.829 35.7532 20.1502 35.6534 20.4212 35.4669C20.6922 35.2804 20.9002 35.016 21.0177 34.7088L28.7414 14.6252H39ZM28.7625 11.3751H38.9301C38.6829 10.2757 38.2086 9.24003 37.5375 8.33472L33.3807 2.72191C32.7788 1.88056 31.985 1.1948 31.0651 0.721441C30.1453 0.248086 29.1259 0.000774542 28.0914 3.1421e-06H24.5164L28.7625 11.3751ZM18.0505 3.1421e-06L13.7296 11.3751H25.2866L21.0519 3.1421e-06H18.0505ZM10.2537 11.3751L14.573 3.1421e-06H10.7997C9.77402 -0.00100659 8.76269 0.241359 7.84883 0.707189C6.93498 1.17302 6.14469 1.84902 5.54287 2.67966L1.52425 7.94797C0.755308 8.95553 0.23326 10.1293 0 11.3751H10.2537ZM25.259 14.6252H13.741L19.5 29.5981L25.259 14.6252Z" fill="black"/>
</svg>
