<svg width="19" height="19" viewBox="0 0 19 19" fill="none" xmlns="http://www.w3.org/2000/svg">
<path d="M2.30769 3.61538C1.96087 3.61538 1.62825 3.75316 1.38301 3.9984C1.13777 4.24364 1 4.57626 1 4.92308V16.6923C1 17.0391 1.13777 17.3717 1.38301 17.617C1.62825 17.8622 1.96087 18 2.30769 18H16.6923C17.0391 18 17.3717 17.8622 17.617 17.617C17.8622 17.3717 18 17.0391 18 16.6923V4.92308C18 4.57626 17.8622 4.24364 17.617 3.9984C17.3717 3.75316 17.0391 3.61538 16.6923 3.61538H14.0769M4.92308 1V6.23077M14.0769 1V6.23077M4.92308 3.61538H11.4615M5.57692 10.1538C5.57692 10.515 5.28419 10.8077 4.92308 10.8077C4.56197 10.8077 4.26923 10.515 4.26923 10.1538C4.26923 9.79274 4.56197 9.5 4.92308 9.5C5.28419 9.5 5.57692 9.79274 5.57692 10.1538ZM10.1538 10.1538C10.1538 10.515 9.86111 10.8077 9.5 10.8077C9.13889 10.8077 8.84615 10.515 8.84615 10.1538C8.84615 9.79274 9.13889 9.5 9.5 9.5C9.86111 9.5 10.1538 9.79274 10.1538 10.1538ZM14.7308 10.1538C14.7308 10.515 14.438 10.8077 14.0769 10.8077C13.7158 10.8077 13.4231 10.515 13.4231 10.1538C13.4231 9.79274 13.7158 9.5 14.0769 9.5C14.438 9.5 14.7308 9.79274 14.7308 10.1538ZM5.57692 14.0769C5.57692 14.438 5.28419 14.7308 4.92308 14.7308C4.56197 14.7308 4.26923 14.438 4.26923 14.0769C4.26923 13.7158 4.56197 13.4231 4.92308 13.4231C5.28419 13.4231 5.57692 13.7158 5.57692 14.0769Z" stroke="black" stroke-width="0.5" stroke-linecap="round" stroke-linejoin="round"/>
</svg>
