<svg width="119" height="35" viewBox="0 0 119 35" fill="none" xmlns="http://www.w3.org/2000/svg">
<path d="M18.176 16.0672C18.1942 13.7249 19.2872 11.547 21.0726 10.3142C19.9431 8.50617 18.1213 7.39667 16.172 7.31449C14.1134 7.06793 12.1095 8.71163 11.0528 8.71163C9.99619 8.71163 8.3566 7.33503 6.62591 7.37613C4.33048 7.45831 2.23544 8.89655 1.12415 11.1566C-1.24415 15.8001 0.522968 22.6215 2.80019 26.3815C3.9479 28.2101 5.2778 30.2647 7.00849 30.2031C8.72095 30.1209 9.35857 28.9703 11.4172 28.9703C13.4758 28.9703 14.0588 30.2031 15.8259 30.1414C17.6476 30.1003 18.8136 28.2923 19.9066 26.4431C20.7264 25.1281 21.3641 23.6899 21.7649 22.1489C19.5969 21.1216 18.176 18.7177 18.176 16.0467V16.0672ZM14.8057 4.84893C15.8077 3.49287 16.2995 1.76698 16.172 0C14.6417 0.184917 13.239 1.00677 12.237 2.30119C11.235 3.57506 10.7249 5.25985 10.8342 6.9652C12.3827 6.9652 13.8401 6.20499 14.8057 4.84893Z" fill="#FFDC10"/>
<path d="M38.6169 25.7261H33.024L31.6759 30.2052H29.3076L34.609 13.6449H37.0684L42.3697 30.2052H39.965L38.6169 25.7261ZM33.607 23.6715H38.0339L35.8478 16.4186H35.7931L33.607 23.6715ZM53.8287 24.1646C53.8287 27.9246 52.0434 30.3285 49.3654 30.3285C47.9808 30.4107 46.6691 29.5888 45.9951 28.2122H45.9404V34.1912H43.7361V18.124H45.8675V20.1375H45.904C46.5963 18.7815 47.9079 17.9596 49.3107 18.0007C52.0251 18.0007 53.8105 20.4252 53.8105 24.1646H53.8287ZM51.5697 24.1646C51.5697 21.7196 50.4584 20.117 48.7459 20.117C47.0335 20.117 45.9404 21.7607 45.9404 24.1646C45.9404 26.5685 47.0699 28.2328 48.7459 28.2328C50.422 28.2328 51.5697 26.6301 51.5697 24.1646ZM65.5974 24.1646C65.5974 27.9246 63.812 30.3285 61.134 30.3285C59.7495 30.4107 58.4378 29.5888 57.7637 28.2122H57.7091V34.1912H55.5047V18.124H57.6362V20.1375H57.6726C58.3649 18.7815 59.6766 17.9596 61.0794 18.0007C63.7938 18.0007 65.5791 20.4252 65.5791 24.1646H65.5974ZM63.3384 24.1646C63.3384 21.7196 62.2271 20.117 60.5146 20.117C58.8021 20.117 57.7091 21.7607 57.7091 24.1646C57.7091 26.5685 58.8386 28.2328 60.5146 28.2328C62.1906 28.2328 63.3384 26.6301 63.3384 24.1646ZM73.3946 25.5823C73.5585 27.226 74.9795 28.2944 76.9106 28.2944C78.8417 28.2944 80.0987 27.226 80.0987 25.7261C80.0987 24.4317 79.2971 23.6715 77.3842 23.1373L75.4896 22.6236C72.7934 21.8839 71.5363 20.4663 71.5363 18.1651C71.5363 15.3091 73.7407 13.3367 76.8741 13.3367C80.0076 13.3367 82.1026 15.3091 82.1755 18.1651H79.9529C79.8254 16.5214 78.6048 15.5146 76.8377 15.5146C75.0706 15.5146 73.85 16.5214 73.85 18.0007C73.85 19.1718 74.6151 19.8499 76.5098 20.3841L78.1312 20.8361C81.1371 21.6374 82.3941 23.014 82.3941 25.4179C82.3941 28.5204 80.208 30.4518 76.7284 30.4518C73.4674 30.4518 71.2813 28.5615 71.1356 25.5617H73.3763L73.3946 25.5823ZM87.1489 15.268V18.124H89.1893V20.0759H87.1489V26.7329C87.1489 27.7602 87.5497 28.2533 88.4424 28.2533C88.6792 28.2533 88.9343 28.2328 89.1711 28.1917V30.1436C88.7703 30.2258 88.3513 30.2669 87.9505 30.2669C85.7826 30.2669 84.9446 29.3423 84.9446 27V20.0759H83.3779V18.124H84.9264V15.268H87.1307H87.1489ZM90.3553 24.1646C90.3553 20.3635 92.341 17.9801 95.438 17.9801C98.535 17.9801 100.521 20.3635 100.521 24.1646C100.521 27.9657 98.5533 30.349 95.438 30.349C92.3228 30.349 90.3553 27.9657 90.3553 24.1646ZM98.28 24.1646C98.28 21.5552 97.2234 20.0142 95.438 20.0142C93.6527 20.0142 92.5961 21.5552 92.5961 24.1646C92.5961 26.774 93.6527 28.315 95.438 28.315C97.2234 28.315 98.28 26.7945 98.28 24.1646ZM102.324 18.124H104.419V20.1786H104.474C104.765 18.8636 105.84 17.939 107.043 18.0007C107.298 18.0007 107.553 18.0212 107.79 18.0829V20.4046C107.462 20.3019 107.134 20.2402 106.806 20.2608C106.168 20.2402 105.531 20.5279 105.093 21.0621C104.656 21.5963 104.438 22.3154 104.51 23.0345V30.1847H102.306V18.124H102.324ZM117.919 26.6507C117.627 28.8492 115.733 30.349 113.31 30.349C110.194 30.349 108.263 27.9862 108.263 24.2262C108.263 20.4662 110.213 17.9801 113.219 17.9801C116.224 17.9801 118.046 20.2813 118.046 23.9386V24.781H110.486V24.9248C110.413 25.8288 110.686 26.7123 111.233 27.3698C111.779 28.0273 112.563 28.3766 113.364 28.356C114.439 28.4588 115.441 27.7807 115.842 26.6507H117.937H117.919ZM110.504 23.0551H115.86C115.897 22.2538 115.641 21.4525 115.15 20.8772C114.658 20.3019 113.965 19.9731 113.237 19.9937C112.508 19.9937 111.816 20.3019 111.306 20.8772C110.796 21.4525 110.504 22.2332 110.504 23.0551Z" fill="white"/>
<path d="M32.8708 7.63731C32.5429 6.97983 32.3789 6.2607 32.3789 5.4594C32.3789 4.65809 32.5429 3.91842 32.8708 3.28148C33.1987 2.624 33.6541 2.13089 34.2007 1.76105C34.7654 1.39122 35.3848 1.2063 36.0589 1.2063C36.824 1.2063 37.4981 1.43231 38.1175 1.88433C38.7369 2.33635 39.1923 2.95274 39.5203 3.7335L38.5729 4.14443C38.3361 3.56913 38.0082 3.11711 37.5527 2.78837C37.0973 2.45963 36.6054 2.29526 36.0589 2.29526C35.312 2.29526 34.6561 2.60345 34.1278 3.17875C33.5995 3.75405 33.3444 4.53481 33.3444 5.43885C33.3444 6.34289 33.5995 7.10311 34.1278 7.69895C34.6561 8.29479 35.2937 8.58244 36.0589 8.58244C36.6236 8.58244 37.1337 8.41807 37.5892 8.06878C38.0446 7.71949 38.3908 7.24693 38.6094 6.65108L39.5749 7.04147C39.2652 7.86332 38.8098 8.50026 38.1721 8.97282C37.5345 9.44539 36.8423 9.69195 36.0589 9.69195C35.3848 9.69195 34.7654 9.50703 34.2007 9.1372C33.6359 8.76736 33.1987 8.27425 32.8708 7.61676V7.63731Z" fill="white"/>
<path d="M40.5215 9.48382V3.75488H41.487V6.06692H41.7603L43.7096 3.75488H44.9666L42.6165 6.61935L44.9666 9.48382H43.7096L41.7603 7.19225H41.487V9.48382H40.5215Z" fill="white"/>
<path d="M48.869 6.92422L47.5209 7.10836C46.9015 7.19021 46.5918 7.45619 46.5918 7.88586C46.5918 8.11093 46.6829 8.29507 46.8469 8.4383C47.0108 8.56106 47.2477 8.6429 47.5391 8.6429C47.9399 8.6429 48.2678 8.52014 48.5047 8.25415C48.7415 7.98817 48.869 7.6608 48.869 7.23113H49.2334C49.2334 7.92679 49.0512 8.49968 48.6686 8.94981C48.2861 9.39994 47.8306 9.62501 47.2659 9.62501C46.774 9.62501 46.3914 9.46132 46.0817 9.15442C45.772 8.84751 45.6263 8.4383 45.6263 7.94725C45.6263 7.45619 45.772 7.06745 46.0817 6.74008C46.3732 6.43317 46.7922 6.22856 47.3023 6.16718L48.869 5.96258V5.77843C48.869 5.47152 48.7597 5.18508 48.5229 4.96001C48.3043 4.73495 48.031 4.61218 47.7213 4.61218C47.4298 4.61218 47.1748 4.69403 46.938 4.87817C46.7011 5.06231 46.5736 5.28738 46.5007 5.55337L45.5898 5.226C45.7174 4.73495 45.9724 4.3462 46.355 4.05975C46.7376 3.7733 47.1748 3.60962 47.6485 3.60962C48.2314 3.60962 48.7415 3.81422 49.1787 4.22343C49.616 4.63264 49.8164 5.1237 49.8164 5.69659V9.46132H48.8326V6.90376L48.869 6.92422Z" fill="white"/>
<path d="M51.9434 3.75581V5.61772C51.9434 6.00647 52.0527 6.33384 52.2531 6.5589C52.4535 6.78397 52.7268 6.90673 53.0365 6.90673C53.3826 6.90673 53.6741 6.78397 53.9109 6.53844C54.1478 6.29291 54.2753 6.00647 54.2753 5.65864H54.749C54.749 6.29292 54.5668 6.82489 54.1842 7.27502C53.8016 7.72515 53.328 7.92976 52.7814 7.92976C52.2713 7.92976 51.8523 7.74561 51.5062 7.35686C51.1601 6.96811 50.9961 6.47706 50.9961 5.84278V3.73535H51.9616L51.9434 3.75581ZM55.2408 3.75581V9.48476H54.2753V3.75581H55.2408Z" fill="white"/>
<path d="M59.4335 6.92422L58.0854 7.10836C57.466 7.19021 57.1563 7.45619 57.1563 7.88586C57.1563 8.11093 57.2474 8.29507 57.4113 8.4383C57.5753 8.56106 57.8121 8.6429 58.1036 8.6429C58.5044 8.6429 58.8323 8.52014 59.0691 8.25415C59.306 7.98817 59.4335 7.6608 59.4335 7.23113H59.7978C59.7978 7.92679 59.6157 8.49968 59.2331 8.94981C58.8505 9.39994 58.3951 9.62501 57.8303 9.62501C57.3384 9.62501 56.9559 9.46132 56.6462 9.15442C56.3365 8.84751 56.1907 8.4383 56.1907 7.94725C56.1907 7.45619 56.3365 7.06745 56.6462 6.74008C56.9377 6.43317 57.3567 6.22856 57.8668 6.16718L59.4335 5.96258V5.77843C59.4335 5.47152 59.3242 5.18508 59.0874 4.96001C58.8687 4.73495 58.5955 4.61218 58.2858 4.61218C57.9943 4.61218 57.7392 4.69403 57.5024 4.87817C57.2656 5.06231 57.1381 5.28738 57.0652 5.55337L56.1543 5.226C56.2818 4.73495 56.5369 4.3462 56.9194 4.05975C57.302 3.7733 57.7392 3.60962 58.2129 3.60962C58.7959 3.60962 59.306 3.81422 59.7432 4.22343C60.1804 4.63264 60.3808 5.1237 60.3808 5.69659V9.46132H59.3971V6.90376L59.4335 6.92422Z" fill="white"/>
<path d="M66.2841 9.50811H65.3186V5.13173L62.677 9.50811H61.5293V3.75513H62.4948V8.02877L65.1364 3.75513H66.2659V9.50811H66.2841ZM63.934 2.89218C63.4422 2.89218 63.0232 2.70726 62.6952 2.35797C62.3491 1.98814 62.1851 1.55667 62.1669 1.04301H62.9685C62.9685 1.3512 63.0596 1.59776 63.2418 1.78268C63.4239 1.98814 63.6608 2.07033 63.9523 2.07033C64.2437 2.07033 64.4988 1.96759 64.6992 1.76213C64.8996 1.55667 65.0089 1.31011 65.0089 1.02246H65.8105C65.8105 1.51557 65.6283 1.94705 65.2639 2.31688C64.8996 2.68672 64.4624 2.87163 63.9705 2.87163L63.934 2.89218Z" fill="white"/>
<path d="M71.511 3.75488V4.77791H69.8349V9.48382H68.8694V4.77791H67.1934V3.75488H71.5292H71.511Z" fill="white"/>
<path d="M73.2048 7.08909C73.2594 7.55968 73.4598 7.94843 73.7695 8.23487C74.0792 8.52132 74.4618 8.66454 74.899 8.66454C75.2269 8.66454 75.5366 8.5827 75.8099 8.39856C76.0832 8.21441 76.2836 7.98935 76.4293 7.68244L77.322 8.07119C77.1034 8.56224 76.7754 8.95099 76.3382 9.23744C75.901 9.52389 75.4273 9.66711 74.899 9.66711C74.1339 9.66711 73.4962 9.38066 72.9679 8.78731C72.4396 8.19395 72.1846 7.45738 72.1846 6.57757C72.1846 5.69777 72.4396 4.96119 72.9497 4.36784C73.4598 3.77448 74.0792 3.48804 74.8444 3.48804C75.6095 3.48804 76.2289 3.77448 76.7572 4.34738C77.2855 4.92027 77.5406 5.63639 77.5406 6.51619C77.5406 6.65941 77.5224 6.84356 77.4859 7.06863H73.223L73.2048 7.08909ZM76.5386 6.10698C76.484 5.61593 76.3018 5.24764 75.9921 4.96119C75.6824 4.67475 75.2998 4.53152 74.8626 4.53152C74.4254 4.53152 74.061 4.67475 73.7513 4.96119C73.4416 5.24764 73.2594 5.63639 73.2048 6.10698H76.5386Z" fill="white"/>
<path d="M84.3528 9.48382H81.2012V3.75488H84.2435C84.7172 3.75488 85.118 3.89811 85.4459 4.20501C85.7738 4.51192 85.9196 4.88021 85.9196 5.33034C85.9196 5.57587 85.8649 5.82139 85.7374 6.026C85.6099 6.2306 85.4459 6.39429 85.2455 6.49659C85.4823 6.63981 85.6645 6.82396 85.8103 7.06948C85.956 7.31501 86.0289 7.60146 86.0289 7.90836C86.0289 8.3585 85.8649 8.72679 85.5552 9.03369C85.2455 9.3406 84.8447 9.48382 84.3528 9.48382ZM84.1524 4.73699H82.1849V6.14876H84.2435C84.4439 6.14876 84.6261 6.08738 84.7536 5.96462C84.8994 5.84185 84.9722 5.67817 84.9722 5.49403C84.9722 5.26896 84.8994 5.08482 84.7354 4.94159C84.5897 4.79837 84.3893 4.73699 84.1524 4.73699ZM84.2435 7.02856H82.1667V8.50172H84.2435C84.4804 8.50172 84.6625 8.44034 84.8265 8.29712C84.9722 8.15389 85.0633 7.99021 85.0633 7.7856C85.0633 7.56054 84.9905 7.37639 84.8265 7.23317C84.6625 7.08994 84.4804 7.02856 84.2435 7.02856Z" fill="white"/>
</svg>
