<svg width="131" height="36" viewBox="0 0 131 36" fill="none" xmlns="http://www.w3.org/2000/svg">
<path fill-rule="evenodd" clip-rule="evenodd" d="M14.1916 16.6827L0.255047 0.985352C0.0910876 1.35519 0 1.80721 0 2.34141V31.0241C0 31.5788 0.0910876 32.0308 0.255047 32.4007L14.1916 16.6827Z" fill="#FFDC10"/>
<path fill-rule="evenodd" clip-rule="evenodd" d="M0.291992 0.905029C0.291992 0.905029 0.291996 0.884399 0.310364 0.86377C0.310364 0.86377 0.31036 0.884399 0.291992 0.905029Z" fill="#FFDC10"/>
<path fill-rule="evenodd" clip-rule="evenodd" d="M14.9936 15.7796L19.2929 10.9306L2.91519 0.431472C2.45975 0.123277 2.02252 0 1.62173 0C1.42134 0 1.23916 0.0410921 1.0752 0.102731L14.9936 15.759V15.7796Z" fill="#FFDC10"/>
<path fill-rule="evenodd" clip-rule="evenodd" d="M25.3384 14.8146L20.3285 11.6094L15.8105 16.7049L20.3285 21.7798L25.3384 18.5746C26.9416 17.5473 26.9416 15.8625 25.3384 14.8351V14.8146Z" fill="#FFDC10"/>
<path fill-rule="evenodd" clip-rule="evenodd" d="M14.9923 17.6042L1.11035 33.2606C1.60223 33.4455 2.22163 33.3633 2.9139 32.9318L19.2917 22.4326L14.9923 17.6042Z" fill="#FFDC10"/>
<path fill-rule="evenodd" clip-rule="evenodd" d="M0.271484 32.4446C0.344355 32.5878 0.417231 32.6901 0.490102 32.8129C0.399014 32.7106 0.326138 32.5878 0.271484 32.4446Z" fill="#FFDC10"/>
<path fill-rule="evenodd" clip-rule="evenodd" d="M53.3612 19.6646C50.6467 19.6646 48.4424 21.9863 48.4424 25.1915C48.4424 28.3967 50.6467 30.7185 53.3612 30.7185C56.0756 30.7185 58.2618 28.3762 58.2618 25.1915C58.2618 22.0068 56.0574 19.6646 53.3612 19.6646ZM53.3612 28.5406C51.8855 28.5406 50.5921 27.164 50.5921 25.1915C50.5921 23.2191 51.8855 21.8425 53.3612 21.8425C54.8368 21.8425 56.1121 23.1985 56.1121 25.1915C56.1121 27.1845 54.8368 28.5406 53.3612 28.5406Z" fill="white"/>
<path fill-rule="evenodd" clip-rule="evenodd" d="M64.0714 19.6646C61.3752 19.6646 59.1709 21.9863 59.1709 25.1915C59.1709 28.3967 61.3752 30.7185 64.0714 30.7185C66.7677 30.7185 68.9903 28.3762 68.9903 25.1915C68.9903 22.0068 66.7859 19.6646 64.0714 19.6646ZM64.0714 28.5406C62.5958 28.5406 61.3206 27.164 61.3206 25.1915C61.3206 23.2191 62.5958 21.8425 64.0714 21.8425C65.5471 21.8425 66.8406 23.1985 66.8406 25.1915C66.8406 27.1845 65.5653 28.5406 64.0714 28.5406Z" fill="white"/>
<path d="M110.895 14.1377H108.745V30.3693H110.895V14.1377Z" fill="white"/>
<path fill-rule="evenodd" clip-rule="evenodd" d="M128.075 19.9915L125.616 27.0183H125.543L122.992 19.9915H120.679L124.504 29.8126L122.318 35.2985H124.559L130.48 19.9915H128.075Z" fill="white"/>
<path fill-rule="evenodd" clip-rule="evenodd" d="M116.159 19.6223C114.592 19.6223 112.989 20.3825 112.315 22.1084L114.228 23.0125C114.647 22.1084 115.394 21.8208 116.177 21.8208C117.289 21.8208 118.418 22.581 118.436 23.9165V24.0809C118.054 23.8343 117.216 23.4645 116.196 23.4645C114.137 23.4645 112.042 24.7383 112.042 27.1217C112.042 29.2791 113.736 30.6968 115.613 30.6968C117.052 30.6968 117.853 29.9571 118.364 29.0942H118.436V30.3475H120.513V24.122C120.513 21.2455 118.6 19.6429 116.141 19.6429L116.159 19.6223ZM115.904 28.5189C115.212 28.5189 114.228 28.1285 114.228 27.1628C114.228 25.9095 115.449 25.4164 116.505 25.4164C117.453 25.4164 117.89 25.6424 118.455 25.9711C118.291 27.471 117.143 28.5189 115.886 28.5189H115.904Z" fill="white"/>
<path fill-rule="evenodd" clip-rule="evenodd" d="M102.823 14.1377H97.6855V30.3487H99.817V24.2054H102.823C105.209 24.2054 107.541 22.2535 107.541 19.1715C107.541 16.0896 105.191 14.1377 102.823 14.1377ZM102.896 21.9658H99.8352V16.3978H102.896C104.499 16.3978 105.41 17.8977 105.41 19.1921C105.41 20.4865 104.499 21.9658 102.896 21.9658Z" fill="white"/>
<path fill-rule="evenodd" clip-rule="evenodd" d="M77.2275 19.9943V20.8983H77.1546C76.6628 20.2408 75.7337 19.6655 74.5677 19.6655C72.1265 19.6655 69.8857 22.09 69.8857 25.213C69.8857 28.3361 72.1265 30.6989 74.5677 30.6989C75.7337 30.6989 76.6628 30.1236 77.1546 29.4456H77.2275V30.2469C77.2275 32.3426 76.2437 33.4932 74.6224 33.4932C73.3107 33.4932 72.4909 32.4248 72.163 31.5413L70.2865 32.4043C70.8331 33.863 72.2541 35.6711 74.6224 35.6711C77.1546 35.6711 79.2861 33.9863 79.2861 29.9181V19.9943H77.2457H77.2275ZM74.7681 28.5415C73.2925 28.5415 72.0355 27.1238 72.0355 25.213C72.0355 23.3022 73.2925 21.8434 74.7681 21.8434C76.2437 21.8434 77.3732 23.2611 77.3732 25.213C77.3732 27.1649 76.2073 28.5415 74.7681 28.5415Z" fill="white"/>
<path fill-rule="evenodd" clip-rule="evenodd" d="M80.7607 30.3693H82.9105V14.1377H80.7607V30.3693Z" fill="white"/>
<path fill-rule="evenodd" clip-rule="evenodd" d="M88.8127 28.5405C87.7196 28.5405 86.9545 27.9652 86.4444 26.8557L92.9846 23.8149L92.7659 23.1985C92.3469 21.9657 91.1264 19.6851 88.5759 19.6851C86.0254 19.6851 83.9668 21.9246 83.9668 25.212C83.9668 28.3145 86.0436 30.739 88.8127 30.739C91.0535 30.739 92.3469 29.198 92.8935 28.294L91.2175 27.0406C90.6709 27.9652 89.9058 28.5816 88.8127 28.5816V28.5405ZM88.6487 21.8013C89.505 21.8013 90.2337 22.2739 90.4705 22.9725L86.0983 25.0271C86.0436 22.8903 87.5739 21.8013 88.667 21.8013H88.6487Z" fill="white"/>
<path fill-rule="evenodd" clip-rule="evenodd" d="M40.6094 21.3476V23.6899H45.5829C45.4371 25.0049 45.0363 25.9705 44.4534 26.6486C43.7247 27.4704 42.5952 28.3539 40.6094 28.3539C37.5489 28.3539 35.1623 25.5802 35.1623 22.1284C35.1623 18.6766 37.5489 15.9028 40.6094 15.9028C42.2672 15.9028 43.4696 16.6425 44.3623 17.5671L45.8197 15.9234C44.5809 14.5879 42.9231 13.5605 40.6094 13.5605C36.4194 13.5605 32.9033 17.4027 32.9033 22.1284C32.9033 26.854 36.4194 30.6962 40.6094 30.6962C42.8684 30.6962 44.5809 29.8538 45.9108 28.2923C47.2771 26.7513 47.7143 24.5734 47.7143 22.8064C47.7143 22.2722 47.6779 21.7585 47.605 21.3476H40.6094Z" fill="white"/>
<path d="M35.6709 6.83885C35.343 6.20192 35.1973 5.50334 35.1973 4.72258C35.1973 3.94182 35.3612 3.2227 35.6709 2.60631C35.9988 1.96938 36.4179 1.47626 36.9644 1.12698C37.5109 0.77769 38.1121 0.592773 38.7862 0.592773C39.5149 0.592773 40.1889 0.818782 40.7901 1.25025C41.3913 1.68173 41.8467 2.29812 42.1564 3.05833L41.2273 3.46926C41.0087 2.91451 40.6626 2.46249 40.2254 2.15429C39.7881 1.82555 39.2963 1.66118 38.7679 1.66118C38.0392 1.66118 37.4016 1.94883 36.8915 2.52413C36.3814 3.09942 36.1264 3.83909 36.1264 4.72258C36.1264 5.60607 36.3814 6.34574 36.8915 6.92104C37.4016 7.49633 38.021 7.78398 38.7679 7.78398C39.3145 7.78398 39.8246 7.61961 40.2618 7.27032C40.7172 6.92104 41.0452 6.46902 41.2638 5.89372L42.1929 6.2841C41.9014 7.06486 41.4459 7.7018 40.8265 8.17436C40.2071 8.62638 39.5331 8.87294 38.7679 8.87294C38.1121 8.87294 37.4927 8.68802 36.9462 8.33873C36.3996 7.98944 35.9624 7.49633 35.6527 6.8594L35.6709 6.83885Z" fill="white"/>
<path d="M43.123 8.62454V3.03882H44.0704V5.28947H44.3436L46.2383 3.03882H47.4589L45.1634 5.82145L47.4589 8.60408H46.2383L44.3436 6.37388H44.0704V8.60408H43.123V8.62454Z" fill="white"/>
<path d="M51.2307 6.14907L49.919 6.33321C49.3179 6.41505 49.0082 6.66058 49.0082 7.09025C49.0082 7.31532 49.081 7.49946 49.2632 7.62222C49.4272 7.74499 49.6458 7.82683 49.9373 7.82683C50.3198 7.82683 50.6478 7.70407 50.8846 7.43808C51.1214 7.19255 51.2307 6.84472 51.2307 6.43551H51.5951C51.5951 7.11071 51.4129 7.66314 51.0486 8.09281C50.6842 8.54295 50.2288 8.76801 49.6822 8.76801C49.2086 8.76801 48.826 8.62479 48.5163 8.31788C48.2066 8.01097 48.0608 7.62222 48.0608 7.15163C48.0608 6.68104 48.2066 6.29229 48.4981 5.98538C48.7895 5.67847 49.1903 5.49433 49.6822 5.43295L51.2125 5.22834V5.0442C51.2125 4.73729 51.1032 4.47131 50.8846 4.24624C50.666 4.02117 50.4109 3.91887 50.1012 3.91887C49.8098 3.91887 49.5729 4.00071 49.3361 4.18486C49.1175 4.34854 48.9717 4.57361 48.9171 4.83959L48.0244 4.51223C48.1519 4.04163 48.407 3.65289 48.7713 3.36644C49.1357 3.07999 49.5547 2.93677 50.0284 2.93677C50.6113 2.93677 51.1032 3.14137 51.5222 3.53012C51.9412 3.93933 52.1416 4.40992 52.1416 4.96236V8.62479H51.1943V6.12861L51.2307 6.14907Z" fill="white"/>
<path d="M54.2354 3.06226V4.86278C54.2354 5.25153 54.3447 5.55844 54.5451 5.7835C54.7455 6.00857 55.0006 6.11087 55.3103 6.11087C55.6382 6.11087 55.9297 5.98811 56.1483 5.76304C56.3851 5.51752 56.4944 5.25153 56.4944 4.92416H56.9499C56.9499 5.53798 56.7677 6.06995 56.3851 6.49962C56.0208 6.92929 55.5471 7.15436 55.0188 7.15436C54.5269 7.15436 54.1079 6.97021 53.78 6.58146C53.4521 6.19271 53.2881 5.72212 53.2881 5.10831V3.06226H54.2354ZM57.4417 3.06226V8.64797H56.4944V3.06226H57.4417Z" fill="white"/>
<path d="M61.5247 6.14907L60.213 6.33321C59.6118 6.41505 59.3021 6.66058 59.3021 7.09025C59.3021 7.31532 59.375 7.49946 59.5572 7.62222C59.7211 7.74499 59.9397 7.82683 60.2312 7.82683C60.6138 7.82683 60.9417 7.70407 61.1785 7.43808C61.4154 7.19255 61.5247 6.84472 61.5247 6.43551H61.889C61.889 7.11071 61.7068 7.66314 61.3425 8.09281C60.9781 8.54295 60.5227 8.76801 59.9762 8.76801C59.5025 8.76801 59.1199 8.62479 58.8102 8.31788C58.5005 8.01097 58.3548 7.62222 58.3548 7.15163C58.3548 6.68104 58.5005 6.29229 58.792 5.98538C59.0835 5.67847 59.4843 5.49433 59.9762 5.43295L61.5065 5.22834V5.0442C61.5065 4.73729 61.3971 4.47131 61.1785 4.24624C60.9599 4.02117 60.7049 3.91887 60.3952 3.91887C60.1037 3.91887 59.8669 4.00071 59.63 4.18486C59.4114 4.34854 59.2657 4.57361 59.211 4.83959L58.3184 4.51223C58.4459 4.04163 58.7009 3.65289 59.0653 3.36644C59.4296 3.07999 59.8486 2.93677 60.3223 2.93677C60.9053 2.93677 61.3972 3.14137 61.8162 3.53012C62.2352 3.93933 62.4356 4.40992 62.4356 4.96236V8.62479H61.4882V6.12861L61.5247 6.14907Z" fill="white"/>
<path d="M68.2093 8.64728H67.262V4.37364L64.6933 8.64728H63.582V3.03813H64.5293V7.18849L67.098 3.03813H68.2093V8.64728ZM65.9139 2.21628C65.4402 2.21628 65.0395 2.03136 64.6933 1.68208C64.3654 1.33279 64.2014 0.901315 64.1832 0.408203H64.9666C64.9666 0.695852 65.0576 0.942408 65.2398 1.12732C65.422 1.31224 65.6406 1.41497 65.9321 1.41497C66.2236 1.41497 66.4604 1.31224 66.6608 1.12732C66.8612 0.921861 66.9523 0.695852 66.9523 0.408203H67.7174C67.7174 0.901315 67.5353 1.31224 67.1891 1.68208C66.8248 2.03136 66.4058 2.21628 65.9321 2.21628H65.9139Z" fill="white"/>
<path d="M73.2734 3.06226V4.06482H71.6338V8.64797H70.6865V4.06482H69.0469V3.06226H73.2734Z" fill="white"/>
<path d="M74.932 6.30978C74.9866 6.78037 75.1688 7.14866 75.4785 7.41465C75.7882 7.68064 76.1526 7.82386 76.5898 7.82386C76.9177 7.82386 77.2092 7.74202 77.4825 7.55787C77.7557 7.39419 77.9379 7.14866 78.0837 6.86222L78.9399 7.25097C78.7213 7.72156 78.4116 8.11031 77.9926 8.39675C77.5735 8.6832 77.0999 8.82642 76.5898 8.82642C75.8429 8.82642 75.2235 8.53998 74.7134 7.96708C74.2033 7.39419 73.9482 6.67807 73.9482 5.81873C73.9482 4.95939 74.2033 4.24327 74.6951 3.67038C75.187 3.09748 75.8064 2.81104 76.5352 2.81104C77.2639 2.81104 77.8833 3.09748 78.3933 3.64992C78.9034 4.20235 79.1585 4.91847 79.1585 5.75735C79.1585 5.90057 79.1403 6.08472 79.1038 6.28932H74.9502L74.932 6.30978ZM78.1747 5.34814C78.1201 4.87755 77.9561 4.50926 77.6464 4.22281C77.3367 3.95682 76.9724 3.8136 76.5352 3.8136C76.0979 3.8136 75.77 3.95682 75.4603 4.22281C75.1688 4.4888 74.9866 4.87755 74.932 5.34814H78.1747Z" fill="white"/>
<path d="M85.7852 8.62454H82.7246V3.03882H85.6759C86.1313 3.03882 86.5321 3.18204 86.8418 3.46849C87.1515 3.75494 87.3155 4.12323 87.3155 4.57336C87.3155 4.81888 87.2608 5.04395 87.1333 5.24855C87.024 5.45316 86.86 5.59638 86.6596 5.71915C86.8965 5.84191 87.0787 6.04651 87.2062 6.29204C87.3337 6.53756 87.4066 6.80355 87.4066 7.09C87.4066 7.51967 87.2426 7.88796 86.9329 8.17441C86.6232 8.46085 86.2406 8.62454 85.767 8.62454H85.7852ZM85.5848 4.02092H83.6719V5.41224H85.6759C85.8763 5.41224 86.0402 5.35086 86.186 5.22809C86.3135 5.10533 86.3864 4.94165 86.3864 4.7575C86.3864 4.53244 86.3135 4.36875 86.1678 4.22553C86.022 4.0823 85.8398 4.02092 85.603 4.02092H85.5848ZM85.6941 6.25112H83.6719V7.68335H85.6941C85.9127 7.68335 86.1131 7.62197 86.2589 7.47875C86.4046 7.35599 86.4775 7.1923 86.4775 6.9877C86.4775 6.76263 86.4046 6.59895 86.2589 6.45572C86.1131 6.3125 85.9309 6.25112 85.6941 6.25112Z" fill="white"/>
</svg>
