<svg width="288" height="40" viewBox="0 0 288 40" fill="none" xmlns="http://www.w3.org/2000/svg">
<g clip-path="url(#clip0_1_6401)">
<path d="M14.9877 21.6553H20.4795C20.3595 22.5101 20.1046 23.2839 19.7117 23.9677C19.1448 24.9575 18.347 25.7134 17.3182 26.2412C16.2894 26.7691 15.1167 27.0331 13.8 27.0331C12.2703 27.0331 10.9386 26.6762 9.80485 25.9653C8.6711 25.2545 7.79529 24.2467 7.17443 22.939C6.55357 21.6343 6.24463 20.0986 6.24463 18.332C6.24463 16.5654 6.55957 15.0627 7.19243 13.743C7.82529 12.4263 8.72209 11.4095 9.88284 10.6987C11.0436 9.98781 12.3873 9.63088 13.917 9.63088C15.4466 9.63088 16.7693 9.99381 17.8911 10.7196C19.0128 11.4455 19.8077 12.4653 20.2846 13.785L26.2173 13.0321C25.7164 11.1606 24.8976 9.5529 23.7668 8.2092C22.633 6.86549 21.2294 5.83072 19.5557 5.10488C17.8821 4.37903 16.0015 4.01611 13.92 4.01611C11.2055 4.01611 8.78508 4.62198 6.66454 5.83671C4.54101 7.04845 2.90037 8.73708 1.74262 10.8996C0.578873 13.0591 0 15.5366 0 18.332C0 21.1274 0.578873 23.6108 1.73962 25.7853C2.90037 27.9599 4.50202 29.6485 6.54457 30.8482C8.58712 32.048 10.8996 32.6478 13.4851 32.6478C15.2247 32.6478 16.7873 32.3509 18.17 31.757C19.5527 31.1632 20.7075 30.2934 21.6313 29.1476C21.9882 28.7037 22.3061 28.2178 22.5821 27.6929L23.4099 32.171H26.6912V17.4202H14.9847V21.6523L14.9877 21.6553Z" fill="white"/>
<path d="M49.1353 5.85471C47.0927 4.62798 44.7532 4.01611 42.1168 4.01611C39.4804 4.01611 37.0959 4.62798 35.0384 5.85471C32.9808 7.08144 31.3942 8.77607 30.2724 10.9356C29.1507 13.0981 28.5928 15.5636 28.5928 18.332C28.5928 21.1004 29.1537 23.5658 30.2724 25.7284C31.3942 27.8909 32.9808 29.5855 35.0384 30.8092C37.0959 32.036 39.4534 32.6478 42.1168 32.6478C44.7802 32.6478 47.0927 32.036 49.1353 30.8092C51.1778 29.5825 52.7675 27.8909 53.9012 25.7284C55.035 23.5658 55.6019 21.1004 55.6019 18.332C55.6019 15.5636 55.035 13.0981 53.9012 10.9356C52.7675 8.77307 51.1778 7.07844 49.1353 5.85471ZM48.4634 22.9C47.8696 24.2047 47.0267 25.2215 45.932 25.9443C44.8372 26.6702 43.5655 27.0331 42.1168 27.0331C40.6681 27.0331 39.3874 26.6702 38.2807 25.9443C37.1739 25.2185 36.3221 24.2047 35.7312 22.9C35.1373 21.5953 34.8404 20.0716 34.8404 18.332C34.8404 16.5924 35.1373 15.0687 35.7312 13.764C36.3251 12.4593 37.1739 11.4455 38.2807 10.7196C39.3874 9.99381 40.6651 9.63088 42.1168 9.63088C43.5685 9.63088 44.8402 9.99381 45.932 10.7196C47.0267 11.4455 47.8696 12.4593 48.4634 13.764C49.0573 15.0687 49.3542 16.5924 49.3542 18.332C49.3542 20.0716 49.0573 21.5953 48.4634 22.9Z" fill="white"/>
<path d="M77.2515 5.85471C75.2089 4.62798 72.8694 4.01611 70.233 4.01611C67.5966 4.01611 65.2121 4.62798 63.1546 5.85471C61.097 7.08144 59.5104 8.77607 58.3886 10.9356C57.2669 13.0981 56.709 15.5636 56.709 18.332C56.709 21.1004 57.2699 23.5658 58.3886 25.7284C59.5104 27.8909 61.097 29.5855 63.1546 30.8092C65.2121 32.036 67.5696 32.6478 70.233 32.6478C72.8964 32.6478 75.2089 32.036 77.2515 30.8092C79.294 29.5825 80.8837 27.8909 82.0175 25.7284C83.1512 23.5658 83.7181 21.1004 83.7181 18.332C83.7181 15.5636 83.1512 13.0981 82.0175 10.9356C80.8837 8.77307 79.294 7.07844 77.2515 5.85471ZM76.5796 22.9C75.9858 24.2047 75.143 25.2215 74.0482 25.9443C72.9534 26.6702 71.6817 27.0331 70.233 27.0331C68.7843 27.0331 67.5036 26.6702 66.3969 25.9443C65.2901 25.2185 64.4383 24.2047 63.8474 22.9C63.2535 21.5953 62.9566 20.0716 62.9566 18.332C62.9566 16.5924 63.2535 15.0687 63.8474 13.764C64.4413 12.4593 65.2901 11.4455 66.3969 10.7196C67.5036 9.99381 68.7813 9.63088 70.233 9.63088C71.6847 9.63088 72.9564 9.99381 74.0482 10.7196C75.143 11.4455 75.9858 12.4593 76.5796 13.764C77.1735 15.0687 77.4704 16.5924 77.4704 18.332C77.4704 20.0716 77.1735 21.5953 76.5796 22.9Z" fill="white"/>
<path d="M108.177 11.2146C107.004 9.10603 105.331 7.45639 103.153 6.27165C100.979 5.08691 98.4801 4.49304 95.6577 4.49304H86.0088V32.174H95.6577C98.4771 32.174 100.976 31.5801 103.153 30.3954C105.328 29.2076 107.001 27.561 108.177 25.4525C109.35 23.3439 109.938 20.9714 109.938 18.335C109.938 15.6986 109.35 13.3261 108.177 11.2176V11.2146ZM102.7 22.741C102.04 23.9948 101.098 24.9696 99.8718 25.6684C98.645 26.3673 97.2143 26.7152 95.5797 26.7152H92.1005V9.94885H95.5797C97.2143 9.94885 98.645 10.2998 99.8718 10.9956C101.098 11.6945 102.04 12.6693 102.7 13.923C103.36 15.1767 103.69 16.6464 103.69 18.332C103.69 20.0176 103.36 21.4903 102.7 22.741Z" fill="white"/>
<path d="M172.529 21.6553H178.021C177.901 22.5101 177.646 23.2839 177.253 23.9678C176.686 24.9575 175.888 25.7134 174.859 26.2413C173.83 26.7691 172.658 27.0331 171.341 27.0331C169.811 27.0331 168.48 26.6762 167.346 25.9653C166.212 25.2545 165.336 24.2467 164.715 22.939C164.095 21.6343 163.786 20.0986 163.786 18.332C163.786 16.5654 164.101 15.0627 164.733 13.743C165.366 12.4263 166.263 11.4095 167.424 10.6987C168.585 9.98781 169.928 9.63089 171.458 9.63089C172.988 9.63089 174.31 9.99381 175.432 10.7196C176.551 11.4455 177.349 12.4653 177.826 13.785L183.758 13.0321C183.257 11.1606 182.439 9.5529 181.305 8.2092C180.171 6.86549 178.767 5.83072 177.094 5.10488C175.42 4.37903 173.54 4.01611 171.458 4.01611C168.744 4.01611 166.323 4.62198 164.203 5.83671C162.079 7.04845 160.438 8.73708 159.281 10.8996C158.12 13.0621 157.541 15.5396 157.541 18.335C157.541 21.1304 158.12 23.6138 159.281 25.7884C160.441 27.9629 162.043 29.6515 164.086 30.8512C166.128 32.051 168.441 32.6509 171.026 32.6509C172.766 32.6509 174.328 32.3539 175.711 31.76C177.094 31.1662 178.248 30.2964 179.172 29.1506C179.529 28.7067 179.847 28.2208 180.123 27.6959L180.951 32.177H184.232V17.4262H172.526V21.6583L172.529 21.6553Z" fill="white"/>
<path d="M193.446 4.48999L184.745 32.1709H190.639L192.42 26.1992H202.501L204.283 32.1709H210.372L201.631 4.48999H193.446ZM193.917 21.1783L197.36 9.63087H197.558L201.002 21.1783H193.917Z" fill="white"/>
<path d="M227.102 25.1735H226.904L219.39 4.48999H211.244V32.1739H217.057V12.9151H217.255L224.294 32.1739H229.435L236.475 12.9151H236.67V32.1739H242.524V4.48999H234.615L227.102 25.1735Z" fill="white"/>
<path d="M251.937 20.7044H263.247V15.7225H251.937V9.71185H264.63V4.48999H245.965V32.1739H264.828V26.9521H251.937V20.7044Z" fill="white"/>
<path d="M286.579 19.4207C285.628 18.302 284.509 17.4831 283.216 16.9703C281.924 16.4574 280.262 15.9745 278.235 15.5276C276.864 15.2126 275.808 14.9337 275.07 14.6968C274.332 14.4598 273.718 14.1239 273.232 13.689C272.743 13.2541 272.5 12.6812 272.5 11.9704C272.5 11.3375 272.677 10.8036 273.034 10.3687C273.391 9.9338 273.883 9.61887 274.515 9.42091C275.148 9.22296 275.874 9.12398 276.69 9.12398C278.034 9.12398 279.188 9.39992 280.151 9.9548C281.114 10.5097 281.807 11.3915 282.227 12.6032L287.724 11.8534C287.146 9.34893 285.898 7.41735 283.987 6.05865C282.077 4.69995 279.644 4.02209 276.69 4.02209C274.686 4.02209 272.899 4.35202 271.33 5.01188C269.761 5.67173 268.541 6.59253 267.671 7.78027C266.801 8.96801 266.366 10.3657 266.366 11.9734C266.366 13.8449 266.834 15.3416 267.77 16.4604C268.706 17.5821 269.818 18.4129 271.111 18.9528C272.404 19.4927 274.038 20.0146 276.015 20.5155C277.359 20.8574 278.4 21.1633 279.14 21.4243C279.878 21.6882 280.499 22.0451 281 22.4921C281.501 22.942 281.753 23.5208 281.753 24.2317C281.753 24.9425 281.561 25.4854 281.18 25.9323C280.796 26.3822 280.262 26.7241 279.578 26.9611C278.891 27.198 278.103 27.318 277.206 27.318C275.73 27.318 274.416 26.9941 273.271 26.3492C272.125 25.7043 271.288 24.6816 270.76 23.2839L265.064 24.0337C265.697 26.8021 267.086 28.9316 269.237 30.4193C271.384 31.91 274.092 32.6538 277.362 32.6538C279.524 32.6538 281.402 32.3179 282.998 31.6461C284.593 30.9742 285.826 29.9844 286.696 28.6797C287.566 27.375 288 25.8003 288 23.9527C288 22.1051 287.527 20.5455 286.576 19.4237L286.579 19.4207Z" fill="white"/>
<path d="M151.803 9.67588V0H115.673V27.606L133.738 39.3274L151.803 27.606V20.2816V13.779H145.3H127.727L145.3 20.1886V24.0757L133.738 31.5771L122.175 24.0757V6.49958H145.3V9.67588H151.803Z" fill="#FFDC10"/>
<path d="M151.599 36.934C151.464 36.694 151.275 36.505 151.032 36.3731C150.792 36.2411 150.522 36.1721 150.225 36.1721C149.928 36.1721 149.658 36.2381 149.418 36.3731C149.178 36.505 148.989 36.694 148.851 36.934C148.716 37.1739 148.647 37.4468 148.647 37.7498C148.647 38.0527 148.716 38.3226 148.851 38.5656C148.986 38.8055 149.175 38.9945 149.418 39.1265C149.661 39.2584 149.928 39.3274 150.225 39.3274C150.522 39.3274 150.792 39.2614 151.032 39.1265C151.272 38.9915 151.461 38.8055 151.599 38.5656C151.734 38.3256 151.803 38.0527 151.803 37.7498C151.803 37.4468 151.734 37.1739 151.599 36.934ZM151.233 38.3706C151.137 38.5536 150.999 38.6946 150.825 38.7935C150.651 38.8925 150.45 38.9435 150.225 38.9435C150 38.9435 149.799 38.8955 149.625 38.7935C149.451 38.6946 149.313 38.5536 149.217 38.3706C149.121 38.1877 149.07 37.9807 149.07 37.7528C149.07 37.5248 149.118 37.3149 149.217 37.1349C149.313 36.9519 149.451 36.811 149.625 36.712C149.799 36.613 150 36.562 150.225 36.562C150.45 36.562 150.651 36.613 150.825 36.712C150.999 36.811 151.134 36.9519 151.233 37.1349C151.329 37.3179 151.38 37.5218 151.38 37.7528C151.38 37.9837 151.332 38.1907 151.233 38.3706Z" fill="#FFDC10"/>
<path d="M150.717 37.7767C150.816 37.6927 150.864 37.5878 150.864 37.4648C150.864 37.3418 150.816 37.2308 150.717 37.1468C150.621 37.0629 150.486 37.0209 150.318 37.0209H149.709V38.4816H150.054V37.9057H150.255L150.561 38.4816H150.939L150.567 37.8637C150.624 37.8427 150.675 37.8157 150.717 37.7797V37.7767ZM150.285 37.2908C150.351 37.2908 150.408 37.3058 150.45 37.3358C150.495 37.3658 150.516 37.4108 150.516 37.4678C150.516 37.5248 150.495 37.5668 150.45 37.5937C150.405 37.6207 150.351 37.6357 150.285 37.6357H150.054V37.2908H150.285Z" fill="#FFDC10"/>
</g>
<defs>
<clipPath id="clip0_1_6401">
<rect width="288" height="39.3274" fill="white"/>
</clipPath>
</defs>
</svg>
