<svg width="37" height="41" viewBox="0 0 37 41" fill="none" xmlns="http://www.w3.org/2000/svg">
<path d="M36.1301 10.2244V0.214844H0V28.7727L18.0651 40.8984L36.1301 28.7727V21.1958V14.469H29.6275H12.0544L29.6275 21.0996V25.1208L18.0651 32.8808L6.50258 25.1208V6.93854H29.6275V10.2244H36.1301Z" fill="#FFDC10"/>
<path d="M35.9279 38.4246C35.7929 38.1755 35.604 37.9794 35.361 37.8424C35.1211 37.7054 34.8511 37.6338 34.5542 37.6338C34.2573 37.6338 33.9873 37.7023 33.7474 37.8424C33.5074 37.9794 33.3185 38.1755 33.1805 38.4246C33.0455 38.6737 32.9766 38.957 32.9766 39.2715C32.9766 39.586 33.0455 39.8662 33.1805 40.1184C33.3155 40.3674 33.5044 40.5636 33.7474 40.7006C33.9903 40.8376 34.2573 40.9092 34.5542 40.9092C34.8511 40.9092 35.1211 40.8407 35.361 40.7006C35.601 40.5605 35.7899 40.3674 35.9279 40.1184C36.0629 39.8693 36.1319 39.586 36.1319 39.2715C36.1319 38.957 36.0629 38.6737 35.9279 38.4246ZM35.562 39.916C35.466 40.1059 35.328 40.2522 35.1541 40.355C34.9801 40.4577 34.7792 40.5107 34.5542 40.5107C34.3293 40.5107 34.1283 40.4609 33.9543 40.355C33.7804 40.2522 33.6424 40.1059 33.5464 39.916C33.4505 39.7261 33.3995 39.5112 33.3995 39.2746C33.3995 39.038 33.4475 38.82 33.5464 38.6332C33.6424 38.4433 33.7804 38.297 33.9543 38.1942C34.1283 38.0915 34.3293 38.0385 34.5542 38.0385C34.7792 38.0385 34.9801 38.0915 35.1541 38.1942C35.328 38.297 35.463 38.4433 35.562 38.6332C35.658 38.8231 35.709 39.0349 35.709 39.2746C35.709 39.5143 35.661 39.7292 35.562 39.916Z" fill="#FFDC10"/>
<path d="M35.0459 39.2993C35.1448 39.2121 35.1928 39.1031 35.1928 38.9754C35.1928 38.8478 35.1448 38.7326 35.0459 38.6454C34.9499 38.5582 34.8149 38.5146 34.647 38.5146H34.0381V40.0309H34.383V39.4331H34.584L34.8899 40.0309H35.2678L34.8959 39.3895C34.9529 39.3677 35.0039 39.3397 35.0459 39.3024V39.2993ZM34.614 38.7949C34.6799 38.7949 34.7369 38.8104 34.7789 38.8416C34.8239 38.8727 34.8449 38.9194 34.8449 38.9786C34.8449 39.0377 34.8239 39.0813 34.7789 39.1093C34.7339 39.1373 34.6799 39.1529 34.614 39.1529H34.383V38.7949H34.614Z" fill="#FFDC10"/>
</svg>
