<svg width="143" height="143" viewBox="0 0 143 143" fill="none" xmlns="http://www.w3.org/2000/svg">
<g clip-path="url(#clip0_1_6531)">
<path d="M118.993 0H24.0066C10.7481 0 0 10.7481 0 24.0066V118.993C0 132.252 10.7481 143 24.0066 143H118.993C132.252 143 143 132.252 143 118.993V24.0066C143 10.7481 132.252 0 118.993 0Z" fill="#FFDC10"/>
<path d="M102.988 14.8242V19.0221V23.22V27.418V31.6159V35.8138V40.0142H107.186V35.8138V31.6159V27.418V23.22V19.0221V14.8242V10.6262H102.988V14.8242Z" fill="black"/>
<path d="M115.581 10.6262H111.383H107.186V14.8242H111.383H115.581H119.779H123.977V10.6262H119.779H115.581Z" fill="black"/>
<path d="M128.175 10.6262H123.978V14.8242H128.175V19.0221V23.22V27.418V31.6159V35.8138H123.978V40.0142H128.175H132.376V35.8138V31.6159V27.418V23.22V19.0221V14.8242V10.6262H128.175Z" fill="black"/>
<path d="M86.194 14.8242H81.9961V19.0222H86.194V14.8242Z" fill="black"/>
<path d="M98.7878 14.8242H94.5898V19.0222H98.7878V14.8242Z" fill="black"/>
<path d="M81.9958 19.022H77.7979V23.2199H81.9958V19.022Z" fill="black"/>
<path d="M90.3913 19.022H86.1934V23.2199H90.3913V19.022Z" fill="black"/>
<path d="M115.582 19.022H111.384V23.2199V27.4178V31.6158H115.582H119.78H123.978V27.4178V23.2199V19.022H119.78H115.582Z" fill="black"/>
<path d="M52.6081 23.22H48.4102V27.4179H52.6081V23.22Z" fill="black"/>
<path d="M69.3995 23.22V19.0221V14.8242H65.2016V19.0221H61.0036H56.8057V14.8242H61.0036H65.2016V10.6262H61.0036H56.8057H52.6078H48.4098H44.2119V14.8242V19.0221V23.22H48.4098V19.0221V14.8242H52.6078V19.0221V23.22H56.8057H61.0036H65.2016V27.418H69.3995V23.22Z" fill="black"/>
<path d="M77.7975 23.22H73.5996V27.4179H77.7975V23.22Z" fill="black"/>
<path d="M81.9961 27.4179V31.6158V35.8138H86.194V31.6158V27.4179V23.22H81.9961V27.4179Z" fill="black"/>
<path d="M27.4173 31.6158H31.6153V27.4178V23.2199V19.022H27.4173H23.2194H19.0215V23.2199V27.4178V31.6158H23.2194H27.4173Z" fill="black"/>
<path d="M98.7875 31.6158V27.4179V23.22H94.5895V27.4179H90.3916V31.6158H94.5895H98.7875Z" fill="black"/>
<path d="M65.2018 31.6159V27.418H61.0039V31.6159V35.8138V40.0142V44.2121H65.2018V40.0142V35.8138H69.3998V40.0142H73.6001V35.8138V31.6159H69.3998H65.2018Z" fill="black"/>
<path d="M77.7975 31.616H73.5996V35.8139H77.7975V31.616Z" fill="black"/>
<path d="M19.0218 40.0142H40.0139V10.6262H10.626V40.0142H19.0218ZM14.8239 31.6159V14.8242H35.816V35.8163H14.8239V31.6183V31.6159Z" fill="black"/>
<path d="M56.8054 35.8139V31.616H52.6074V35.8139V40.0143H56.8054V35.8139Z" fill="black"/>
<path d="M81.9958 35.8137H77.7979V40.0117H81.9958V35.8137Z" fill="black"/>
<path d="M98.7875 35.8137H94.5895V40.0141H90.3916V44.212H94.5895H98.7875V40.0141V35.8137Z" fill="black"/>
<path d="M115.581 35.8137H111.383H107.186V40.0141H111.383H115.581H119.779H123.977V35.8137H119.779H115.581Z" fill="black"/>
<path d="M81.9961 40.0141V44.212H86.194H90.392V40.0141V35.8137H86.194V40.0141H81.9961Z" fill="black"/>
<path d="M40.0114 44.2122H35.8135V48.4101H40.0114V44.2122Z" fill="black"/>
<path d="M52.6078 44.2122V40.0143H48.4098V35.8139V31.616H44.2119V35.8139V40.0143V44.2122V48.4101H48.4098H52.6078V52.6081H56.8057V48.4101H61.0036V44.2122H56.8057H52.6078Z" fill="black"/>
<path d="M69.3991 48.4101V52.608H73.5995V48.4101V44.2122H69.3991H65.2012V48.4101H69.3991Z" fill="black"/>
<path d="M73.5996 44.2122V48.4101H77.7975H81.9955V44.2122H77.7975H73.5996Z" fill="black"/>
<path d="M98.7871 44.2122V48.4101H102.987H107.185V44.2122H102.987H98.7871Z" fill="black"/>
<path d="M123.977 44.2122H119.779V48.4101H123.977V44.2122Z" fill="black"/>
<path d="M123.978 44.2122V48.4101H128.175H132.376V44.2122H128.175H123.978Z" fill="black"/>
<path d="M14.8239 48.4102H10.626V52.6081H14.8239V48.4102Z" fill="black"/>
<path d="M98.7878 48.4102H94.5898V52.6081H98.7878V48.4102Z" fill="black"/>
<path d="M111.383 48.4101V44.2122H107.186V48.4101V52.608V56.806V61.0039H111.383V65.2018V69.3998H115.581H119.779V65.2018H115.581V61.0039V56.806H111.383V52.608H115.581V56.806H119.779H123.977V52.608H119.779V48.4101H115.581H111.383Z" fill="black"/>
<path d="M44.2119 52.6079V56.8058H48.4098H52.6078V52.6079H48.4098H44.2119Z" fill="black"/>
<path d="M77.7975 52.6081H73.5996V56.806H77.7975V61.004H81.9955V65.2019H77.7975V69.3998V73.6002H81.9955V69.3998H86.1934V73.6002H90.3913V69.3998V65.2019V61.004V56.806H86.1934V52.6081H90.3913V48.4102H86.1934H81.9955V52.6081H77.7975Z" fill="black"/>
<path d="M90.3916 56.8058V61.0038V65.2017V69.3996V73.6V77.7979H94.5895V73.6V69.3996H98.7875V65.2017H102.988V61.0038H98.7875V56.8058H94.5895V52.6079H90.3916V56.8058Z" fill="black"/>
<path d="M128.175 52.6079H123.978V56.8058H128.175V52.6079Z" fill="black"/>
<path d="M31.6153 56.806H35.8132H40.0136V52.608H35.8132H31.6153H27.4173V48.4101H31.6153V44.2122H27.4173H23.2194H19.0215V48.4101H23.2194V52.608V56.806H27.4173V61.0039H31.6153V56.806Z" fill="black"/>
<path d="M56.806 61.0038H61.004V65.2017V69.3996V73.6V77.7979H56.806H52.6081H48.4102V81.9959H52.6081H56.806H61.004H65.2019H69.3998V77.7979H73.6002V73.6H69.3998V69.3996H65.2019V65.2017H69.3998H73.6002V61.0038H69.3998V56.8058H65.2019H61.004V52.6079H56.806V56.8058V61.0038Z" fill="black"/>
<path d="M107.186 56.8059H102.988V61.0038H107.186V56.8059Z" fill="black"/>
<path d="M35.8132 65.2018H40.0135V69.3998H44.2115V65.2018H48.4094V61.0039H44.2115H40.0135H35.8132H31.6152V65.2018H35.8132Z" fill="black"/>
<path d="M77.7975 61.0039H73.5996V65.2018H77.7975V61.0039Z" fill="black"/>
<path d="M123.977 61.0039H119.779V65.2018H123.977V61.0039Z" fill="black"/>
<path d="M128.175 61.0039H123.978V65.2018H128.175V61.0039Z" fill="black"/>
<path d="M27.418 65.2018V61.0039H23.2201H19.0222H14.8242V65.2018V69.3998H19.0222H23.2201H27.418H31.6159V65.2018H27.418Z" fill="black"/>
<path d="M107.186 65.2017H102.988V69.3996H107.186V65.2017Z" fill="black"/>
<path d="M128.175 69.3996V73.6H123.978V77.7979H128.175H132.376V73.6V69.3996V65.2017H128.175V69.3996Z" fill="black"/>
<path d="M35.8132 69.3997H31.6152V73.6H35.8132H40.0135V69.3997H35.8132Z" fill="black"/>
<path d="M52.6076 73.6001H56.8056V69.3998V65.2018V61.0039H52.6076V65.2018V69.3998H48.4097H44.2118V73.6001H40.0138V77.7981H35.8135V81.996H40.0138H44.2118V77.7981H48.4097V73.6001H52.6076Z" fill="black"/>
<path d="M98.7878 73.6V77.798H94.5898V81.9959H98.7878H102.988V77.798V73.6V69.3997H98.7878V73.6Z" fill="black"/>
<path d="M107.186 73.6V77.798H111.383H115.581V73.6H111.383V69.3997H107.186V73.6Z" fill="black"/>
<path d="M23.2194 73.6001H19.0215V77.798V81.996H23.2194H27.4173V77.798H31.6153V73.6001H27.4173H23.2194Z" fill="black"/>
<path d="M86.194 73.6001H81.9961V77.798H86.194V73.6001Z" fill="black"/>
<path d="M119.779 77.798H123.977V73.6V69.3997H119.779V73.6V77.798Z" fill="black"/>
<path d="M14.8239 77.798V73.6001H10.626V77.798V81.996H14.8239V77.798Z" fill="black"/>
<path d="M81.9958 77.7981H77.7979V81.996H81.9958V77.7981Z" fill="black"/>
<path d="M65.2015 81.9958H61.0036H56.8057V86.1938V90.3917H61.0036V94.5896H65.2015V98.7876H69.3995H73.5998V94.5896H69.3995V90.3917H73.5998V86.1938V81.9958H69.3995H65.2015Z" fill="black"/>
<path d="M90.3913 81.9958H86.1934V86.1938H90.3913V81.9958Z" fill="black"/>
<path d="M102.988 81.9958H98.7878V86.1938H94.5898V90.3917H98.7878H102.988V86.1938V81.9958Z" fill="black"/>
<path d="M119.78 86.1938V81.9958H115.582H111.384V86.1938H115.582H119.78Z" fill="black"/>
<path d="M128.175 81.9958H123.978V86.1938H128.175V81.9958Z" fill="black"/>
<path d="M27.4177 86.1938H23.2197V90.3918H27.4177V86.1938Z" fill="black"/>
<path d="M52.608 86.1938V81.9958H48.4101H44.2121H40.0142V86.1938H35.8138H31.6159V90.3917H27.418V94.5896H31.6159H35.8138V90.3917H40.0142V94.5896H35.8138V98.7876H40.0142H44.2121V94.5896V90.3917H48.4101V94.5896V98.7876H52.608H56.8059V94.5896V90.3917H52.608V86.1938Z" fill="black"/>
<path d="M123.977 86.1938H119.779V90.3918H123.977V86.1938Z" fill="black"/>
<path d="M23.2194 90.3918H19.0215V94.5898H23.2194V90.3918Z" fill="black"/>
<path d="M102.988 94.5898H98.7878H94.5898V98.7877H98.7878H102.988H107.186V94.5898V90.3918H102.988V94.5898Z" fill="black"/>
<path d="M111.383 90.3918V86.1938H107.186V90.3918V94.5897V98.7876H111.383H115.581H119.779H123.977V94.5897H119.779V90.3918H115.581H111.383Z" fill="black"/>
<path d="M123.978 90.3918V94.5898V98.7877H128.175H132.376V94.5898V90.3918H128.175H123.978Z" fill="black"/>
<path d="M14.8239 94.5896V90.3917V86.1938H19.0218V81.9958H14.8239H10.626V86.1938V90.3917V94.5896V98.7876H14.8239V94.5896Z" fill="black"/>
<path d="M27.4177 94.5898H23.2197V98.7878H27.4177V94.5898Z" fill="black"/>
<path d="M81.9955 98.7876H86.1934V94.5896V90.3917H81.9955V86.1938V81.9958H77.7975H73.5996V86.1938V90.3917V94.5896V98.7876H77.7975H81.9955Z" fill="black"/>
<path d="M52.6078 102.988V98.7876H48.4098H44.2119V102.988H48.4098H52.6078Z" fill="black"/>
<path d="M65.2015 98.7876H61.0036V102.988H56.8057V107.186H61.0036V111.384H65.2015H69.3995V115.582H73.5998V111.384V107.186H69.3995V102.988H65.2015V98.7876Z" fill="black"/>
<path d="M73.5973 98.7876H69.3994V102.986H73.5973V98.7876Z" fill="black"/>
<path d="M81.9955 98.7876H77.7975H73.5996V102.988H77.7975V107.186H81.9955V111.384H86.1934V115.582H90.3913V111.384V107.186H86.1934V102.988H81.9955V98.7876Z" fill="black"/>
<path d="M90.3913 98.7876H86.1934V102.986H90.3913V98.7876Z" fill="black"/>
<path d="M119.779 98.7876H115.581H111.383V102.988V107.186V111.384H107.186V115.582H111.383H115.581V111.384H119.779V107.186H123.977V102.988H119.779V98.7876Z" fill="black"/>
<path d="M123.978 98.7876V102.988H128.175V107.186H123.978V111.384V115.582H128.175V111.384H132.376V107.186V102.988V98.7876H128.175H123.978Z" fill="black"/>
<path d="M31.6156 102.988H27.4177H23.2198H19.0218H14.8239H10.626V107.186V111.384V115.582H14.8239V111.384V107.186H19.0218H23.2198H27.4177H31.6156H35.8136V111.384V115.582H40.0139V111.384V107.186V102.988H35.8136H31.6156Z" fill="black"/>
<path d="M107.186 102.988H102.988V107.186H107.186V102.988Z" fill="black"/>
<path d="M56.806 107.186H52.6081H48.4102V111.384H52.6081V115.582H56.806H61.004V111.384H56.806V107.186Z" fill="black"/>
<path d="M77.7975 107.186H73.5996V111.384H77.7975V107.186Z" fill="black"/>
<path d="M27.4173 115.582H31.6153V111.384H27.4173H23.2194H19.0215V115.582H23.2194H27.4173Z" fill="black"/>
<path d="M48.4098 111.384H44.2119V115.582H48.4098V111.384Z" fill="black"/>
<path d="M98.7875 111.384V107.186V102.988V98.7876H94.5895H90.3916V102.988V107.186V111.384V115.582H94.5895H98.7875H102.988H107.186V111.384H102.988H98.7875Z" fill="black"/>
<path d="M19.0215 119.78V123.978H23.2194H27.4173H31.6153V119.78V115.582H27.4173H23.2194H19.0215V119.78Z" fill="black"/>
<path d="M35.8136 119.78V123.978V128.176H31.6156H27.4177H23.2198H19.0218H14.8239V123.978V119.78V115.582H10.626V119.78V123.978V128.176V132.376H14.8239H19.0218H23.2198H27.4177H31.6156H35.8136H40.0139V128.176V123.978V119.78V115.582H35.8136V119.78Z" fill="black"/>
<path d="M52.6078 115.582H48.4098H44.2119V119.78V123.978H48.4098V119.78H52.6078H56.8057V115.582H52.6078Z" fill="black"/>
<path d="M77.7975 115.582H73.5996V119.78H77.7975V115.582Z" fill="black"/>
<path d="M86.1937 115.582H81.9958V119.78H77.7979V123.978H81.9958V128.176H86.1937V132.376H90.3917V128.176V123.978V119.78H86.1937V115.582Z" fill="black"/>
<path d="M98.7875 115.582H94.5895V119.78H98.7875V123.978H102.988V128.176H98.7875H94.5895H90.3916V132.376H94.5895H98.7875H102.988H107.186V128.176V123.978V119.78V115.582H102.988H98.7875Z" fill="black"/>
<path d="M65.2015 119.78V115.582H61.0036V119.78H56.8057V123.978H61.0036V128.176H56.8057V132.376H61.0036H65.2015V128.176H69.3995V123.978H65.2015V119.78Z" fill="black"/>
<path d="M73.5973 119.78H69.3994V123.978H73.5973V119.78Z" fill="black"/>
<path d="M119.78 123.978H115.582V128.176H119.78V132.376H123.978V128.176V123.978V119.78H119.78V123.978Z" fill="black"/>
<path d="M128.175 119.78H123.978V123.978H128.175V119.78Z" fill="black"/>
<path d="M56.8054 123.978H52.6074V128.176H56.8054V123.978Z" fill="black"/>
<path d="M111.383 123.978H115.581V119.78V115.582H111.383V119.78H107.186V123.978V128.176V132.376H111.383H115.581V128.176H111.383V123.978Z" fill="black"/>
<path d="M132.374 123.978H128.176V128.176H132.374V123.978Z" fill="black"/>
<path d="M77.7975 128.176H73.5996V132.373H77.7975V128.176Z" fill="black"/>
</g>
<defs>
<clipPath id="clip0_1_6531">
<rect width="143" height="143" fill="white"/>
</clipPath>
</defs>
</svg>
