<svg width="24" height="24" viewBox="0 0 24 24" fill="none" xmlns="http://www.w3.org/2000/svg">
<g clip-path="url(#clip0_1_6836)">
<path d="M24 23.524C24 23.8 23.775 24.024 23.5 24.024L3.5 24C1.571 24 0 22.43 0 20.5V0.5C0 0.224 0.224 0 0.5 0C0.776 0 1 0.224 1 0.5V20.5C1 21.878 2.122 23 3.5 23L23.501 23.024C23.776 23.024 24 23.249 24 23.524ZM5 12.524V19.5C5 19.776 5.224 20 5.5 20C5.776 20 6 19.776 6 19.5V12.524C6 12.248 5.776 12.024 5.5 12.024C5.224 12.024 5 12.248 5 12.524ZM10 10.524V19.5C10 19.776 10.224 20 10.5 20C10.776 20 11 19.776 11 19.5V10.524C11 10.248 10.776 10.024 10.5 10.024C10.224 10.024 10 10.248 10 10.524ZM15 13.524V19.5C15 19.776 15.224 20 15.5 20C15.776 20 16 19.776 16 19.5V13.524C16 13.248 15.776 13.024 15.5 13.024C15.224 13.024 15 13.248 15 13.524ZM20 9.5V19.5C20 19.776 20.224 20 20.5 20C20.776 20 21 19.776 21 19.5V9.5C21 9.224 20.776 9 20.5 9C20.224 9 20 9.224 20 9.5ZM4.5 9C4.628 9 4.756 8.951 4.854 8.854L9.328 4.38C9.699 4.009 10.302 4.009 10.673 4.38L13.621 7.329C14.383 8.088 15.619 8.088 16.381 7.329L22.854 0.854C23.049 0.659 23.049 0.342 22.854 0.147C22.659 -0.048 22.342 -0.048 22.147 0.147L15.673 6.621C15.302 6.992 14.698 6.992 14.327 6.621L11.379 3.673C10.618 2.912 9.381 2.912 8.62 3.673L4.146 8.147C3.951 8.342 3.951 8.659 4.146 8.854C4.244 8.952 4.372 9 4.5 9Z" fill="#FFDC10"/>
</g>
<defs>
<clipPath id="clip0_1_6836">
<rect width="24" height="24" fill="white"/>
</clipPath>
</defs>
</svg>
