<svg width="24" height="24" viewBox="0 0 24 24" fill="none" xmlns="http://www.w3.org/2000/svg">
<g clip-path="url(#clip0_1_6813)">
<path d="M16.981 12.596V20.211C16.991 21.041 16.613 21.916 15.981 22.668V24.097H14.981V22.321C15.505 21.723 16.019 20.905 15.981 20.212V12.597C15.981 12.321 15.757 12.097 15.481 12.097C15.205 12.097 14.981 12.321 14.981 12.597V16.097H13.981V11.597C13.981 11.321 13.757 11.097 13.481 11.097C13.205 11.097 12.981 11.321 12.981 11.597V16.097H11.981V10.597C11.981 10.321 11.757 10.097 11.481 10.097C11.205 10.097 10.981 10.321 10.981 10.597V16.097H9.981V11.597C9.981 11.321 9.757 11.097 9.481 11.097C9.205 11.097 8.981 11.321 8.981 11.597V20.293L6.975 18.287C6.737 18.094 6.483 17.971 6.154 18.287C5.935 18.506 5.923 18.878 6.128 19.083L9.981 22.833V24.097H8.981V23.255L5.425 19.795C4.828 19.198 4.841 18.186 5.446 17.58C6.072 16.921 7.073 16.969 7.681 17.58L7.98 17.879V11.597C7.98 10.77 8.653 10.097 9.48 10.097C9.677 10.097 9.865 10.137 10.038 10.207C10.211 9.569 10.789 9.097 11.48 9.097C12.171 9.097 12.749 9.57 12.922 10.207C13.095 10.137 13.282 10.097 13.48 10.097C14.171 10.097 14.749 10.57 14.922 11.207C15.095 11.137 15.282 11.097 15.48 11.097C16.307 11.097 16.98 11.77 16.98 12.597L16.981 12.596ZM5.981 12.671L2.589 9.178C2.077 8.707 1.88 7.759 1.836 6.965L0 5.115V6.534L0.879 7.42C0.95 8.398 1.286 9.286 1.872 9.875L5.98 14.106V12.672L5.981 12.671ZM10.445 3.125C10.735 3.129 10.986 3.405 10.981 3.714C10.963 4.171 10.699 4.257 10.385 4.285L7.281 4.278L10.364 7.298C10.717 7.177 11.088 7.097 11.482 7.097C11.522 7.097 11.559 7.108 11.599 7.109L9.737 5.284H10.378C11.247 5.311 11.99 4.633 11.982 3.729C11.995 2.872 11.298 2.138 10.455 2.125L5.489 2.119L3.381 0H1.971L5.072 3.118L10.445 3.125ZM21.988 6.177L21.981 11.55C21.977 11.84 21.701 12.091 21.392 12.086C20.935 12.068 20.849 11.804 20.821 11.49L20.828 8.386L18.467 10.796C18.654 11.104 18.797 11.44 18.882 11.801L19.823 10.841V11.482C19.796 12.351 20.474 13.094 21.378 13.086C22.235 13.099 22.969 12.402 22.982 11.559L22.988 6.593L24.001 5.586V4.176L21.988 6.177ZM19.586 0.091L17.686 1.985C16.708 2.056 15.82 2.392 15.231 2.978L12.718 5.418L13.429 6.12L15.927 3.694C16.398 3.182 17.346 2.985 18.14 2.941L21.005 0.091H19.586Z" fill="#FFDC10"/>
</g>
<defs>
<clipPath id="clip0_1_6813">
<rect width="24" height="24" fill="white"/>
</clipPath>
</defs>
</svg>
