<svg width="24" height="24" viewBox="0 0 24 24" fill="none" xmlns="http://www.w3.org/2000/svg">
<g clip-path="url(#clip0_1_6819)">
<path d="M12 9.256C10.346 9.256 9 10.602 9 12.256C9 13.91 10.346 15.256 12 15.256C13.654 15.256 15 13.91 15 12.256C15 10.602 13.654 9.256 12 9.256ZM12 14.256C10.897 14.256 10 13.359 10 12.256C10 11.153 10.897 10.256 12 10.256C13.103 10.256 14 11.153 14 12.256C14 13.359 13.103 14.256 12 14.256ZM22.109 14.865C21.345 14.628 20.25 14.168 19.197 13.546C20.289 12.375 21.262 10.763 21.964 8.244L22.051 7.932L13.525 0.877L13.318 1.619C12.769 3.589 12.057 4.951 11.242 5.976C10.289 4.685 9.575 3.313 9.134 1.89C8.779 0.742 7.788 0 6.611 0H2C0.897 0 0 0.897 0 2C0 2.872 0.564 3.607 1.344 3.88C1.127 4.2 1 4.585 1 5C1 5.872 1.564 6.607 2.344 6.88C2.127 7.2 2 7.585 2 8C2 9.103 2.897 10 4 10H5.968C4.389 11.147 2.862 12.698 1.642 15.702L1.504 16.041L9.996 23.066L10.253 22.434C11.309 19.833 12.625 18.399 14 17.346V19.999C14 21.102 14.897 21.999 16 21.999C16.414 21.999 16.8 21.872 17.12 21.655C17.393 22.435 18.129 22.999 19 22.999C19.414 22.999 19.8 22.872 20.12 22.655C20.393 23.435 21.129 23.999 22 23.999C23.103 23.999 24 23.102 24 21.999V17.388C24 16.21 23.258 15.22 22.109 14.865ZM4 9C3.449 9 3 8.551 3 8C3 7.449 3.449 7 4 7H6V6H3C2.449 6 2 5.551 2 5C2 4.449 2.449 4 3 4H5V3H2C1.449 3 1 2.551 1 2C1 1.449 1.449 1 2 1H6.611C7.352 1 7.953 1.455 8.179 2.186C8.672 3.779 9.475 5.31 10.558 6.74C9.675 7.621 8.704 8.23 7.707 8.852C7.629 8.901 7.55 8.95 7.472 8.999H4V9ZM9.593 21.435L2.71 15.741C4.239 12.199 6.271 10.929 8.237 9.7C10.42 8.337 12.673 6.929 14.062 2.618L20.912 8.285C19.644 12.551 17.577 13.842 15.391 15.208C13.341 16.488 11.226 17.81 9.592 21.434L9.593 21.435ZM23 22C23 22.551 22.552 23 22 23C21.448 23 21 22.551 21 22V19H20V21C20 21.551 19.552 22 19 22C18.448 22 18 21.551 18 21V18H17V20C17 20.551 16.552 21 16 21C15.448 21 15 20.551 15 20V16.643C15.307 16.441 15.615 16.248 15.921 16.057C16.772 15.525 17.633 14.986 18.45 14.272C19.949 15.201 21.375 15.685 21.814 15.821C22.545 16.048 23 16.648 23 17.389V22Z" fill="#FFDC10"/>
</g>
<defs>
<clipPath id="clip0_1_6819">
<rect width="24" height="24" fill="white"/>
</clipPath>
</defs>
</svg>
