<svg width="24" height="24" viewBox="0 0 24 24" fill="none" xmlns="http://www.w3.org/2000/svg">
<path d="M5.14314 8.87979V15.9769M12.0003 8.87979V15.9769M8.57171 10.4055V14.4512M18.8574 8.87979V15.9769M15.4289 10.4055V14.4512M0.857422 6.85693V2.57122C0.857422 2.11656 1.03803 1.68053 1.35952 1.35904C1.68102 1.03755 2.11705 0.856934 2.57171 0.856934H6.85742M23.1431 6.85693V2.57122C23.1431 2.11656 22.9625 1.68053 22.641 1.35904C22.3195 1.03755 21.8835 0.856934 21.4289 0.856934H17.1431M0.857422 17.1426V21.4284C0.857422 21.883 1.03803 22.3191 1.35952 22.6405C1.68102 22.962 2.11705 23.1426 2.57171 23.1426H6.85742M23.1431 17.1426V21.4284C23.1431 21.883 22.9625 22.3191 22.641 22.6405C22.3195 22.962 21.8835 23.1426 21.4289 23.1426H17.1431" stroke="#4F4F4F" stroke-linecap="round" stroke-linejoin="round"/>
</svg>
