<svg width="24" height="24" viewBox="0 0 24 24" fill="none" xmlns="http://www.w3.org/2000/svg">
<path d="M18 8C20.206 8 22 6.206 22 4C22 1.794 20.206 0 18 0C15.794 0 14 1.794 14 4C14 6.206 15.794 8 18 8ZM18 1C19.654 1 21 2.346 21 4C21 5.654 19.654 7 18 7C16.346 7 15 5.654 15 4C15 2.346 16.346 1 18 1ZM8 11C8 13.206 9.794 15 12 15C14.206 15 16 13.206 16 11C16 8.794 14.206 7 12 7C9.794 7 8 8.794 8 11ZM12 8C13.654 8 15 9.346 15 11C15 12.654 13.654 14 12 14C10.346 14 9 12.654 9 11C9 9.346 10.346 8 12 8ZM6 8C8.206 8 10 6.206 10 4C10 1.794 8.206 0 6 0C3.794 0 2 1.794 2 4C2 6.206 3.794 8 6 8ZM6 1C7.654 1 9 2.346 9 4C9 5.654 7.654 7 6 7C4.346 7 3 5.654 3 4C3 2.346 4.346 1 6 1ZM18 20C18 18.346 16.654 17 15 17H9C7.346 17 6 18.346 6 20V23H0V24H24V23H18V20ZM7 20C7 18.897 7.897 18 9 18H15C16.103 18 17 18.897 17 20V23H7V20ZM24 13V17H23V13C23 11.897 22.103 11 21 11H18C18 10.659 17.965 10.326 17.91 10H21C22.654 10 24 11.346 24 13ZM1 17H0V13C0 11.346 1.346 10 3 10H6.09C6.035 10.326 6 10.659 6 11H3C1.897 11 1 11.897 1 13V17Z" fill="#4F4F4F"/>
</svg>
