<svg width="22" height="22" viewBox="0 0 22 22" fill="none" xmlns="http://www.w3.org/2000/svg">
<g clip-path="url(#clip0_1_6465)">
<path d="M13.7069 8.59919L13.3329 7.44236L14.3165 6.72277C14.7198 6.42944 14.8802 5.93261 14.7253 5.45869C14.5842 5.02236 14.1964 4.58327 13.6501 4.58327H12.4364L12.0771 3.53552C11.924 3.05794 11.5014 2.74994 10.9991 2.74994C10.4967 2.74994 10.0742 3.05886 9.92475 3.52727L9.56175 4.58327H8.349C7.80358 4.58327 7.41583 5.02236 7.27283 5.45869C7.11883 5.93261 7.27925 6.42852 7.68075 6.72186L8.66525 7.44236L8.29217 8.59919C8.13725 9.07677 8.30133 9.57269 8.7065 9.86511C9.10525 10.1529 9.64058 10.1511 10.0384 9.85961L10.9991 9.15286L11.9598 9.85869C12.1623 10.0081 12.3961 10.0824 12.6289 10.0824C12.859 10.0824 13.0891 10.0109 13.2907 9.86602C13.6959 9.57452 13.8591 9.07769 13.706 8.59919H13.7069ZM12.7563 9.12077C12.6711 9.18311 12.5858 9.18219 12.5033 9.12077L11.2713 8.21602C11.1907 8.15736 11.0953 8.12711 11 8.12711C10.9047 8.12711 10.8093 8.15644 10.7287 8.21602L9.49667 9.12077C9.41783 9.17761 9.32067 9.17852 9.24367 9.12077C9.15933 9.06119 9.13275 8.98052 9.16483 8.88061L9.64058 7.40844C9.70108 7.22052 9.63508 7.01427 9.47467 6.89786L8.2225 5.98211C8.13908 5.92161 8.11342 5.84002 8.14458 5.74286C8.19317 5.59619 8.30042 5.49902 8.34992 5.49902H9.89083C10.087 5.49902 10.2603 5.37436 10.3244 5.18919L10.7974 3.81419C10.8598 3.61711 11.1393 3.60794 11.209 3.82336L11.6774 5.18919C11.7407 5.37436 11.9148 5.49902 12.111 5.49902H13.6528C13.7023 5.49902 13.8087 5.59527 13.8573 5.74286C13.8884 5.84002 13.8628 5.92069 13.7793 5.98211L12.5272 6.89786C12.3668 7.01427 12.3007 7.22052 12.3612 7.40936L12.837 8.87969C12.8691 8.97961 12.8434 9.06027 12.7591 9.12077H12.7563ZM13.7711 14.6556C19.8367 14.4934 22 11.2704 22 8.53594C22 7.04269 20.9138 5.80427 19.4911 5.55311C19.7157 5.02052 19.9036 4.51177 20.0374 4.05894C20.3197 3.10561 20.1364 2.09727 19.536 1.29336C18.9218 0.471107 17.9813 -0.000976562 16.9565 -0.000976562H5.04167C4.01683 -0.000976562 3.07542 0.471107 2.46217 1.29336C1.86175 2.09727 1.67933 3.10561 1.96075 4.05894C2.09458 4.51086 2.2825 5.02052 2.50708 5.55311C1.08533 5.80519 0 7.04361 0 8.53594C0 11.2704 2.16242 14.4934 8.22892 14.6556C8.239 14.7867 8.25 14.9178 8.25 15.0507V18.7907C8.25 21.0017 6.19117 21.0805 5.9565 21.0824H5.04167C4.78867 21.0824 4.58333 21.2877 4.58333 21.5407C4.58333 21.7937 4.78867 21.999 5.04167 21.999H16.9583C17.2113 21.999 17.4167 21.7937 17.4167 21.5407C17.4167 21.2877 17.2113 21.0824 16.9583 21.0824H16.0435C15.8088 21.0805 13.75 21.0017 13.75 18.7907V15.0507C13.75 14.9178 13.761 14.7867 13.7711 14.6556ZM21.0833 8.53594C21.0833 10.9404 19.1895 13.5318 13.9315 13.7307C14.1909 12.7682 14.7253 11.8992 15.4935 11.2456C17.0693 9.90544 18.2738 8.09502 19.0896 6.42852C20.1988 6.49544 21.0833 7.40936 21.0833 8.53594ZM0.916667 8.53594C0.916667 7.41119 1.79942 6.49727 2.90767 6.42944C3.72442 8.09594 4.92892 9.90452 6.50558 11.2456C7.27375 11.8992 7.80817 12.7682 8.0685 13.7307C2.8105 13.5318 0.916667 10.9404 0.916667 8.53594ZM8.26742 21.0833C8.7835 20.5874 9.16667 19.8632 9.16667 18.7916V15.0516C9.16667 13.3072 8.41408 11.6654 7.1005 10.548C4.86567 8.64961 3.40908 5.72544 2.83983 3.80044C2.64 3.12669 2.77108 2.41261 3.19642 1.84336C3.63642 1.25394 4.30925 0.916607 5.04258 0.916607H16.9565C17.6898 0.916607 18.3617 1.25394 18.8027 1.84336C19.228 2.41261 19.3582 3.12577 19.1593 3.80044C18.59 5.72727 17.1325 8.65052 14.9004 10.548C13.5868 11.6654 12.8343 13.3072 12.8343 15.0516V18.7916C12.8343 19.8632 13.2174 20.5874 13.7335 21.0833H8.26925H8.26742Z" fill="#4F4F4F"/>
</g>
<rect x="0.5" y="0.5" width="21" height="21" stroke="#4F4F4F"/>
<defs>
<clipPath id="clip0_1_6465">
<rect width="22" height="22" fill="white"/>
</clipPath>
</defs>
</svg>
